<svg xmlns="http://www.w3.org/2000/svg" class="icon icon--merchline" width="28" height="28" viewBox="650 183 65 65">
      <title>Merchline</title>
      <g fill="currentColor">
        <path d="M663.245 231.23c3.358-.048 8.995-.14 8.995-.14v-19.16l1.733-.427v19.554c2.108-.03 8.503-.126 10.61-.154v-21.985l1.785-.438v22.392l8.993-.138v-35.55c-1.11.386-30.22 10.38-32.114 11.042v25.004z"/>
        <path d="M696.94 232.427h-35.03v-27.042c11.656-4.278 23.305-8.557 34.955-12.833l5.744 33.47-5.67 6.405zm-14.8-48.927c-17.55 0-31.778 14.227-31.778 31.776 0 17.55 14.23 31.78 31.778 31.78 17.55 0 31.78-14.23 31.78-31.78S699.69 183.5 682.14 183.5z"/>
      </g>
    </svg>