<svg xmlns="http://www.w3.org/2000/svg" class="icon icon--rivals" width="28" height="28" viewBox="0 0 65 65">
      <title>Rivals GRP</title>
      <g fill-rule="nonzero" fill="none">
        <g fill="currentColor">
          <path d="M44.23 36.432l-1.677 3.951 4.709 11.095h3.355zM20.749 20.626l-1.678-3.951-1.354-3.192h-3.355l1.355 3.192 1.677 3.951 1.677 3.952 1.678 3.951 1.677-3.951z"/>
          <path d="M50.317 30.936h-7.109l7.409-17.453h-3.355L40.876 28.53l-1.022 2.407H26.435l1.022-2.407 1.678-3.951 1.677-3.952 1.678-3.951 1.676 3.951 1.678 3.952 1.677 3.951 1.677-3.951-1.677-3.952-1.677-3.951-1.355-3.192h-4l-1.354 3.192-1.678 3.951-1.677 3.952-1.677 3.951-1.022 2.407H12.51l-1.31 3.088h10.572l-7.41 17.454h3.356l6.386-15.046 1.022-2.408h13.418l-1.022 2.408-1.677 3.951-1.678 3.952-1.676 3.951-5.033-11.854-1.677 3.951 4.71 11.095h3.999l1.355-3.192 1.677-3.951 1.677-3.952 1.678-3.951 1.021-2.408h10.577l.252-.594 1.059-2.494z"/>
          <path d="M32.492 64.961c-17.91 0-32.48-14.57-32.48-32.48C.012 14.57 14.582 0 32.492 0c17.91 0 32.48 14.57 32.48 32.48 0 17.91-14.57 32.481-32.48 32.481zm0-61.53c-16.018 0-29.049 13.03-29.049 29.05 0 16.018 13.031 29.048 29.05 29.048C48.51 61.53 61.54 48.5 61.54 32.48c0-16.017-13.032-29.048-29.049-29.048z"/>
        </g>
        <path d="M0 0h65v65H0z"/>
      </g>
    </svg>